<?xml version="1.0" encoding="UTF-8" standalone="no"?>
<!-- Created with Inkscape (http://www.inkscape.org/) -->

<svg
   xmlns:dc="http://purl.org/dc/elements/1.1/"
   xmlns:cc="http://creativecommons.org/ns#"
   xmlns:rdf="http://www.w3.org/1999/02/22-rdf-syntax-ns#"
   xmlns:svg="http://www.w3.org/2000/svg"
   xmlns="http://www.w3.org/2000/svg"
   version="1.1"
   width="125"
   height="125"
   id="svg2">
  <metadata
     id="metadata20">
    <rdf:RDF>
      <cc:Work
         rdf:about="">
        <dc:format>image/svg+xml</dc:format>
        <dc:type
           rdf:resource="http://purl.org/dc/dcmitype/StillImage" />
        <dc:title></dc:title>
      </cc:Work>
    </rdf:RDF>
  </metadata>
  <defs
     id="defs18">
    <filter
       color-interpolation-filters="sRGB"
       id="filter7829">
      <feFlood
         result="flood"
         flood-color="rgb(0,0,0)"
         flood-opacity="1"
         id="feFlood7831" />
      <feComposite
         in2="SourceGraphic"
         operator="in"
         in="flood"
         result="composite1"
         id="feComposite7833" />
      <feGaussianBlur
         result="blur"
         stdDeviation="2"
         id="feGaussianBlur7835" />
      <feOffset
         result="offset"
         dy="5"
         dx="5"
         id="feOffset7837" />
      <feComposite
         in2="offset"
         operator="over"
         in="SourceGraphic"
         result="composite2"
         id="feComposite7839" />
    </filter>
    <filter
       color-interpolation-filters="sRGB"
       id="filter7896">
      <feFlood
         result="flood"
         flood-color="rgb(0,0,0)"
         flood-opacity="1"
         id="feFlood7898" />
      <feComposite
         in2="SourceGraphic"
         operator="in"
         in="flood"
         result="composite1"
         id="feComposite7900" />
      <feGaussianBlur
         result="blur"
         stdDeviation="2"
         id="feGaussianBlur7902" />
      <feOffset
         result="offset"
         dy="5"
         dx="5"
         id="feOffset7904" />
      <feComposite
         in2="offset"
         operator="over"
         in="SourceGraphic"
         result="composite2"
         id="feComposite7906" />
    </filter>
  </defs>
  <g
     id="g7892"
     style="filter:url(#filter7896)">
    <rect
       width="69.352577"
       height="70.613396"
       x="-33.459435"
       y="42.083282"
       transform="matrix(0.7042849,-0.70991744,0.70294919,0.71124007,0,0)"
       id="rect7799"
       style="fill:#ffffff;fill-opacity:1;fill-rule:evenodd;stroke:#689fcf;stroke-width:0;stroke-linecap:round;stroke-linejoin:round;stroke-miterlimit:4;stroke-opacity:1;stroke-dasharray:none" />
    <path
       d="M 114.4175,55.138829 64.67525,5.40008 C 61.813,2.53533 57.167,2.53533 54.30075,5.40008 L 43.972125,15.729579 57.07425,28.832204 c 3.045875,-1.028375 6.537125,-0.338875 8.963875,2.088375 2.439375,2.442375 3.124,5.963375 2.06975,9.0195 l 12.628,12.6275 c 3.055125,-1.05275 6.58,-0.372625 9.0195,2.07125 3.410625,3.409625 3.410625,8.934501 0,12.345251 -3.411125,3.411625 -8.936,3.411625 -12.348625,0 -2.5645,-2.5665 -3.19875,-6.3345 -1.899875,-9.494251 L 63.73,45.712579 63.729,76.703705 c 0.8315,0.411625 1.61625,0.961 2.309125,1.650875 3.409625,3.409249 3.409625,8.933125 0,12.347745 -3.410625,3.40913 -8.938,3.40913 -12.34525,0 -3.410125,-3.41462 -3.410125,-8.938496 0,-12.347745 0.84275,-0.84125 1.817875,-1.478 2.858375,-1.90475 l 0,-31.278751 c -1.0405,-0.425375 -2.014125,-1.057625 -2.858375,-1.904875 -2.583,-2.581 -3.205125,-6.372 -1.880375,-9.543875 l -12.9155,-12.918 -34.1064751,34.1045 c -2.86572,2.867125 -2.86572,7.513126 0,10.378376 L 54.53225,115.02602 c 2.86375,2.86475 7.50825,2.86475 10.376,0 L 114.4175,65.517705 c 2.86475,-2.86625 2.86475,-7.513626 0,-10.378876"
       id="path14"
       style="fill:#ef2928;fill-opacity:1;fill-rule:nonzero;stroke:none" />
  </g>
</svg>
